<svg width="14" height="14" viewBox="0 0 14 14" fill="none" xmlns="http://www.w3.org/2000/svg">
<path d="M6.81096 0.126106C6.8809 -0.0420468 7.1191 -0.0420474 7.18904 0.126105L8.98278 4.43877C9.01226 4.50966 9.07893 4.55809 9.15546 4.56423L13.8113 4.93749C13.9929 4.95204 14.0665 5.17859 13.9282 5.29707L10.3809 8.3357C10.3226 8.38565 10.2971 8.46402 10.3149 8.5387L11.3987 13.0821C11.4409 13.2592 11.2482 13.3992 11.0928 13.3043L7.10672 10.8696C7.0412 10.8296 6.9588 10.8296 6.89328 10.8696L2.90719 13.3043C2.75177 13.3992 2.55906 13.2592 2.60132 13.0821L3.68507 8.5387C3.70288 8.46402 3.67742 8.38565 3.61911 8.3357L0.071821 5.29707C-0.0664895 5.17859 0.00712034 4.95204 0.188655 4.93749L4.84454 4.56423C4.92107 4.55809 4.98774 4.50966 5.01722 4.43877L6.81096 0.126106Z" fill="#FFA800"/>
</svg>
